<svg xmlns="http://www.w3.org/2000/svg" xmlns:xlink="http://www.w3.org/1999/xlink" xmlns:svgjs="http://svgjs.com/svgjs" id="SvgjsSvg1001" version="1.1" viewBox="35.32 97.52 217.26 92.63"><defs id="SvgjsDefs1002"/><g id="SvgjsG1008" transform="matrix(1,0,0,1,0,0)"><svg xmlns="http://www.w3.org/2000/svg" enable-background="new 0 0 800 600" version="1.0" viewBox="0 0 800 600" width="288" height="288"><path fill="#5e489d" d="M149.6,170.9c-28.4,0-51.5,23.1-51.5,51.5v154.3c0,28.2,23.1,51.5,51.5,51.5h161.1c28.2,0,51.5-23.1,51.5-51.5   V170.9H149.6z" class="color5e489d svgShape"/><path fill="#ffffff" d="M302.6,390.7l29.9-36l0,0v-12.2h-46.2v12.2h29.9l-29.9,36l0,0v12.2h46.2v-12.2H302.6L302.6,390.7z    M176.5,346.3c-5.3-3.8-11.7-6.1-18.8-6.1c-19,0-34,16.2-32,35.8c1.5,15,13.7,26.9,28.7,28.4c8.4,0.8,16-1.5,22.1-5.8v4.6H190   v-60.9h-13.4V346.3L176.5,346.3z M176.5,372.4c0,11.7-10.7,20.8-22.8,18.3c-7.1-1.5-12.9-7.1-14.2-14.5   c-2.5-12.2,6.6-22.8,18.3-22.8c10.4,0,18.8,8.4,18.8,18.8V372.4L176.5,372.4z M252.6,343c-1,0-2.3,0-3.3,0l17.5-22.6h-16L226,353.6   c-5.1,6.6-7.6,13.7-7.4,20.8c0.3,8.4,3.8,16,9.6,21.6c5.8,5.3,13.4,8.4,21.6,8.4c0.3,0,0.5,0,1,0c17.5-0.5,31-14.5,30.7-31.7   C280.8,356.9,268.4,344,252.6,343L252.6,343z M250.6,392.2c-4.8,0.3-9.1-1.5-12.4-4.6c-3.6-3.3-5.6-8.1-5.8-13.2   c-0.3-5.3,1.5-10.2,4.8-13.7c3-3.3,7.4-5.3,11.9-5.3l0,0c0.3,0,0.5,0,0.8,0c4.3,0,8.6,1.5,11.7,4.6c3.6,3.3,5.8,8.1,5.8,13.2   C268.1,383.3,260.8,392,250.6,392.2L250.6,392.2z M190.2,332.6h8.6v70.3h13.4v-82.5H190C190.2,320.4,190.2,332.6,190.2,332.6z" class="colorfff svgShape"/><path fill="#000000" d="M380 373.2c0-17.8 13.4-31.2 31.5-31.2 11.7 0 21.8 6.1 26.1 15.7l-6.3 3.8c-3.3-7.1-10.7-11.7-19.8-11.7-13.2 0-23.6 10.4-23.6 23.6 0 13.2 10.2 23.6 23.6 23.6 9.1 0 16.2-4.8 20-11.7l6.6 3.8c-5.1 9.1-15.2 15.2-26.9 15.2C393.2 404.4 380 390.9 380 373.2L380 373.2zM471.6 342.5v7.6c-9.6 0-18.8 5.1-18.8 19.8v33.2H445v-59.6h7.9v9.9C456.9 345 464 342.5 471.6 342.5L471.6 342.5zM533.8 343.5l-25.6 65.2c-4.6 11.4-13.4 19.3-24.1 18.3v-7.4c7.9.8 13.2-4.6 16.2-12.4l1.5-3.8-26.4-59.9h8.4l22.3 50 19.3-50H533.8L533.8 343.5zM601.3 373.2c0 17.8-14 31.2-30.7 31.2-10.7 0-19-5.1-24.1-13.2v35.5h-7.9v-83.2h7.9v11.7c5.1-8.1 13.4-13.2 24.1-13.2C587.4 342 601.3 355.7 601.3 373.2zM593.4 373.2c0-13.2-10.2-23.6-23.6-23.6s-23.6 10.4-23.6 23.6 10.2 23.6 23.6 23.6S593.4 386.4 593.4 373.2zM620.1 351.1v36c0 10.2 5.6 9.4 17.3 8.9v6.9c-16 2.3-25.1-1.5-25.1-15.7v-36h-12.4v-7.6h12.4v-14.2l7.9-2.3v16.5h17.3v7.6H620.1L620.1 351.1zM638.6 373.2c0-17.8 14-31.2 31.5-31.2s31.5 13.7 31.5 31.2-14.2 31.2-31.5 31.2C652.8 404.4 638.6 390.9 638.6 373.2L638.6 373.2zM693.4 373.2c0-13.2-10.2-23.6-23.6-23.6-13.4 0-23.6 10.4-23.6 23.6s10.2 23.6 23.6 23.6C683.3 396.8 693.4 386.4 693.4 373.2z" class="color40474f svgShape"/></svg></g></svg>