<svg width="157" height="41" viewBox="0 0 157 41" fill="none" xmlns="http://www.w3.org/2000/svg">
<path d="M0.500092 20.3332L5.01667 15.8166L9.53325 20.3332L5.01667 24.8498L0.500092 20.3332Z" fill="#F0B90B"/>
<path d="M20.4977 9.36706L28.24 17.1094L32.7553 12.5909L20.4977 0.333313L8.24008 12.5909L12.7554 17.1094L20.4977 9.36706Z" fill="#F0B90B"/>
<path d="M31.4657 20.3342L35.9823 15.8176L40.4989 20.3342L35.9823 24.8508L31.4657 20.3342Z" fill="#F0B90B"/>
<path d="M20.4977 31.2996L12.7554 23.5605L8.24008 28.0758L20.4977 40.3334L32.7553 28.0758L28.24 23.5605L20.4977 31.2996Z" fill="#F0B90B"/>
<path d="M15.9841 20.3342L20.5007 15.8177L25.0173 20.3342L20.5007 24.8508L15.9841 20.3342Z" fill="#F0B90B"/>
<path d="M56.9024 20.3332H49.5345V4.84546H56.7247C59.8978 4.84546 61.8365 6.432 61.8365 8.84988V8.8943C61.8365 10.6427 60.9068 11.6136 59.7994 12.2356C61.5922 12.9209 62.6996 13.9617 62.6996 16.0432V16.0877C62.6996 18.9181 60.3959 20.3332 56.9024 20.3332ZM58.4508 9.42421C58.4508 8.40565 57.6544 7.83767 56.2297 7.83767H52.8662V11.1155H55.9917C57.4957 11.1155 58.4477 10.63 58.4477 9.47815L58.4508 9.42421ZM59.3139 15.6212C59.3139 14.5805 58.5397 13.9395 56.7913 13.9395H52.8535V17.3474H56.9024C58.4064 17.3474 59.3139 16.8143 59.3139 15.6656V15.6212ZM66.4375 20.3332V4.84546H69.8454V20.3332H66.4375ZM85.2633 20.3332L77.7622 10.4808V20.3174H74.3955V4.84546H77.5369L84.7937 14.3806V4.84546H88.1572V20.3332H85.2633ZM103.474 20.3332L102.058 16.8429H95.5092L94.0908 20.3332H90.6195L97.2576 4.7344H100.415L107.053 20.3332H103.474ZM98.7838 8.82767L96.7245 13.8506H100.849L98.7838 8.82767ZM120.38 20.3332L112.879 10.4808V20.3174H109.515V4.84546H112.657L119.913 14.3806V4.84546H123.277V20.3332H120.38ZM134.519 20.5998C133.47 20.6153 132.429 20.4196 131.457 20.0242C130.485 19.6288 129.603 19.042 128.863 18.2985C128.123 17.5551 127.54 16.6703 127.148 15.6968C126.757 14.7233 126.566 13.6811 126.586 12.6322V12.5878C126.586 8.18671 129.905 4.57892 134.662 4.57892C137.581 4.57892 139.329 5.55305 140.77 6.96825L138.6 9.46863C137.407 8.38344 136.188 7.72027 134.64 7.72027C132.028 7.72027 130.147 9.89065 130.147 12.5433V12.5878C130.147 15.2436 131.984 17.4553 134.64 17.4553C136.41 17.4553 137.495 16.7477 138.711 15.6434L140.878 17.8329C139.275 19.5368 137.508 20.5998 134.519 20.5998ZM143.616 20.3332V4.84546H155.309V7.87575H146.999V11.0171H154.297V14.0506H146.999V17.303H155.407V20.3332H143.616ZM114.135 24.8454H116.061V34.0473H121.824V35.7988H114.135V24.8454ZM134.922 35.8083H132.885L131.771 33.162H126.586L125.46 35.8083H123.486L128.309 24.766H130.096L134.922 35.8083ZM129.172 27.0697L127.294 31.4549H131.067L129.172 27.0697ZM145.495 27.6504C145.495 28.9957 144.743 29.6843 143.927 30.1095C145.212 30.5474 146.104 31.2835 146.104 32.7876C146.104 34.7612 144.492 35.8083 142.049 35.8083H136.972V24.8454H141.89C144.102 24.8454 145.495 25.9274 145.495 27.6504ZM143.569 27.9677C143.569 27.076 142.88 26.5588 141.643 26.5588H138.869V29.4717H141.5C142.737 29.4654 143.569 28.9799 143.569 27.9613V27.9677ZM144.178 32.5908C144.178 31.6389 143.442 31.1027 141.922 31.1027H138.869V34.1076H142.065C143.381 34.1012 144.178 33.5872 144.178 32.5845V32.5908ZM152.796 29.4495C155.112 30.0143 156.318 30.8456 156.318 32.6765C156.318 34.7454 154.706 35.967 152.403 35.967C150.713 35.9743 149.081 35.3483 147.83 34.2123L148.988 32.8352C150.039 33.7427 151.089 34.2599 152.45 34.2599C153.64 34.2599 154.392 33.7109 154.392 32.8637C154.392 32.0673 153.954 31.6421 151.917 31.1725C149.585 30.6108 148.268 29.9032 148.268 27.8852C148.268 25.9813 149.835 24.6899 152.012 24.6899C153.46 24.6611 154.871 25.1494 155.991 26.067L154.957 27.5234C154.115 26.8324 153.069 26.4367 151.98 26.397C150.854 26.397 150.194 26.9745 150.194 27.7107C150.194 28.5674 150.695 28.9482 152.796 29.4495ZM49.5345 29.4305H109.575V31.255H49.5345V29.4305Z" fill="#F0B90B"/>
</svg>
