<?xml version="1.0" encoding="UTF-8"?>
<svg xmlns:xodm="http://www.corel.com/coreldraw/odm/2003" xmlns="http://www.w3.org/2000/svg" xmlns:xlink="http://www.w3.org/1999/xlink" version="1.1" id="Layer_1" x="0px" y="0px" viewBox="0 0 3000 664" style="enable-background:new 0 0 3000 664;" xml:space="preserve">
<style type="text/css">
	.st0{fill-rule:evenodd;clip-rule:evenodd;fill:#FF007A;}
</style>
<g id="Layer_x0020_1">
	<path class="st0" d="M11.6,15c74.9,91.9,157.2,207.3,170.5,225.9c0.7,1,1.2,1.7,1.5,2.1c7.1,9.9,13,17.3,17.4,22.9l0,0l0,0   c9.9,12.4,12.8,16.1,6.9,19.5c-4.7,2.7-9.6,3.6-14.5,3.6c-5.5,0-11.8-2.7-16.3-7.1c-3.2-3.1-25.2-35.3-55.1-82.1   c-22.9-35.9-42-65.6-42.5-66.1c-1.2-1.1-1.2-1.1,40.2,73.7c26,47,43.8,81.7,43.8,83.9c0,4.5-1.2,6.9-6.7,13.1   c-9.2,10.4-13.3,22-16.3,46.1c-3.3,27-12.7,46.1-38.6,78.7c-15.2,19.1-17.7,22.6-21.5,30.3c-4.8,9.7-6.1,15.1-6.7,27.4   c-0.6,13,0.5,21.3,4.5,33.7c3.4,10.8,7,18,16.2,32.3c7.9,12.3,12.4,21.5,12.4,25.1c0,2.9,0.5,2.9,12.8,0.1   c29.3-6.7,53.1-18.4,66.5-32.8c8.3-8.9,10.2-13.8,10.3-26c0-8-0.2-9.7-2.4-14.3c-3.5-7.5-9.8-13.7-23.8-23.3   c-18.3-12.6-26.1-22.8-28.3-36.8c-1.8-11.5,0.3-19.6,10.4-41c10.5-22.2,13.1-31.6,14.8-54c1.1-14.5,2.7-20.1,6.8-24.7   c4.3-4.8,8.1-6.4,18.7-7.8c17.3-2.4,28.3-6.9,37.4-15.3c7.8-7.3,11.1-14.4,11.6-25l0.4-8l-4.4-5.2C221.8,245.2,1,0.2,0,0.2   C-0.2,0.2,5,6.9,11.6,15L11.6,15z M115.7,501.7c3.6-6.4,1.7-14.7-4.3-18.7c-5.7-3.8-14.5-2-14.5,3c0,1.5,0.8,2.6,2.7,3.6   c3.1,1.6,3.4,3.5,0.9,7.2c-2.5,3.8-2.3,7.2,0.6,9.4C105.7,509.9,112.3,507.9,115.7,501.7L115.7,501.7z M223.8,151.3   c-7.1-1.1-7.4-1.3-4.1-1.8c6.4-1,21.5,0.4,31.9,2.9c24.3,5.8,46.4,20.8,70,47.3l6.3,7.1l9-1.5c37.8-6.1,76.2-1.3,108.3,13.7   c8.8,4.1,22.8,12.3,24.5,14.4c0.6,0.7,1.6,5,2.3,9.6c2.4,16,1.2,28.2-3.6,37.4c-2.6,5-2.8,6.6-1,10.8c1.4,3.4,5.4,5.9,9.3,5.9   c8,0,16.6-13.1,20.6-31.2l1.6-7.2l3.1,3.6c17.2,19.7,30.7,46.5,33,65.6l0.6,5l-2.9-4.5c-5-7.8-10-13.1-16.4-17.4   c-11.5-7.7-23.7-10.3-56-12.1c-29.2-1.5-45.7-4.1-62-9.5c-27.8-9.2-41.9-21.4-75-65.2c-14.7-19.5-23.8-30.2-32.8-38.9   C269.8,165.6,249.7,155.3,223.8,151.3L223.8,151.3z M476.3,194.7c0.7-13.1,2.5-21.7,6-29.5c1.4-3.1,2.7-5.7,2.9-5.7   c0.2,0-0.4,2.3-1.3,5.1c-2.6,7.6-3,18.1-1.2,30.2c2.2,15.4,3.5,17.6,19.6,34.3c7.6,7.8,16.4,17.7,19.6,21.9l5.8,7.7l-5.8-5.5   c-7.1-6.7-23.4-19.8-27-21.7c-2.4-1.3-2.8-1.2-4.3,0.3c-1.4,1.4-1.7,3.4-1.9,13.3c-0.3,15.3-2.4,25.1-7.3,34.9   c-2.7,5.3-3.1,4.2-0.7-1.8c1.8-4.5,2-6.4,2-21.2c0-29.7-3.5-36.8-24-49.1c-5.2-3.1-13.7-7.6-19-10c-5.2-2.4-9.4-4.4-9.3-4.6   c0.6-0.6,20.6,5.3,28.6,8.4c11.9,4.7,13.9,5.2,15.4,4.7C475.3,206,475.8,203.2,476.3,194.7L476.3,194.7z M216.2,171.9   c-1.9,22.9,7,53.6,21.4,73.6c11.1,15.5,28.5,27.6,41.2,28.7c8.4,0.7,10.9-1.9,7.1-7.5c-5.2-7.8-11.7-19.7-13.4-24.8   c-1.1-3.2-3.4-12.5-5.1-20.8c-6-28.3-11.9-39.3-25.5-47.6c-5-3-15.6-7-21.7-8.2l-3.3-0.6L216.2,171.9L216.2,171.9z M458.8,394.5   c-67.3-27.3-90.9-51.1-90.9-91.1c0-5.9,0.2-10.7,0.4-10.7c0.2,0,2.9,1.9,5.8,4.3c13.6,11,28.9,15.8,71.2,22   c24.9,3.7,38.9,6.6,51.8,10.9c41,13.8,66.4,41.7,72.5,79.7c1.7,11,0.7,31.7-2.1,42.7c-2.2,8.6-9.1,24.2-10.9,24.7   c-0.5,0.2-1-1.8-1.1-4.4c-0.7-14.3-7.8-28.2-19.8-38.6C521.9,422.1,503.6,412.7,458.8,394.5L458.8,394.5z M408.4,391.5   c1,2.8,2.4,9.3,3.2,14.4c5.4,32.4-11.4,58.5-44.2,68.7c-3.5,1.1-17.1,3.8-30.3,6c-26.8,4.5-38.7,7.7-50.7,13.5   c-8.5,4.2-18.8,10.3-18.2,11c0.2,0.2,2.1-0.3,4.3-1.1c15.1-5.4,32-8.1,57.5-9.5c10.2-0.5,21.7-1.4,25.7-1.9   c22.8-2.9,38.6-9.9,50.9-22.5c6.9-7,10.9-13.6,14.2-22.8c2.1-5.9,2.4-8,2.4-18.4c0-10.6-0.2-12.5-2.5-19c-3-8.5-6.4-14.9-10.8-19.9   l-3.2-3.6L408.4,391.5L408.4,391.5z M442.5,461.2c-8.9-19.4-11-38.1-6.1-55.6c0.5-1.9,1.4-3.4,1.9-3.4c0.5,0,2.6,1.2,4.7,2.6   c4.1,2.8,12.4,7.5,34.4,19.6c27.5,15.1,43.1,26.8,53.8,40.2c9.3,11.7,15.1,25.1,17.9,41.3c1.6,9.2,0.6,31.4-1.7,40.7   c-7.4,29.2-24.5,52.2-49,65.7c-3.6,2-6.8,3.6-7.2,3.6c-0.3,0,1-3.3,2.9-7.5c8.2-17.4,9.2-34.3,2.9-53.1   c-3.8-11.5-11.6-25.6-27.3-49.4C451.4,478.3,446.9,470.9,442.5,461.2L442.5,461.2z M274.2,524.8c-28.3,4.6-59.3,19.8-84.3,41   l-7.4,6.3l6.5,1c34.1,5.4,43.3,10.2,66.9,34.7c13.6,14.1,18.2,17.3,29.5,20.2c16.6,4.3,32.9-3.6,38.5-18.5   c2.5-6.7,2.2-17.7-0.7-23.3c-6.8-13.2-26.7-17.5-36.4-7.8c-8,8.1-5.7,20.2,4.3,22.3c2.3,0.5,2.2,0.4-0.6-0.9   c-4.4-2-6.3-4.8-6.3-9.1c-0.1-10.3,11.6-16.1,22.5-11.1c7.9,3.6,11.1,8.4,11.1,16.7c0,12.8-10.8,22.4-23.3,20.9   c-6.7-0.9-14.9-5.2-19.3-10.2c-11.1-12.6-6.7-32.6,8.7-40.2c11.8-5.8,27.4-4.4,39.5,3.6c13.9,9.2,19.8,17.6,31.8,45.3   c3.9,9,8.9,19.1,11.2,22.5c11.4,17.2,25,25.6,41.4,25.6c9,0,15.9-1.7,24.4-6c6.4-3.2,15.4-9.3,14.7-10c-0.2-0.2-2.8,0.6-5.9,1.8   c-17.9,7-36.1,6.6-46.7-1.3c-6.6-4.9-12-14.7-14.8-27c-0.5-2.1-2.1-11.5-3.5-20.8c-3.7-23.7-7.2-34.3-15.4-46.5   c-8.4-12.5-24.6-23-42.7-27.6C306.6,523.6,286.3,522.8,274.2,524.8L274.2,524.8z M234.5,342c2.5-9.1,10.3-17.8,18.4-20.3   c5.2-1.6,15.9-0.6,20.9,2c9.7,5,16.8,16.4,15.2,24.6c-1.9,10-17.9,18-36.4,18.1c-9.4,0.1-12.9-1.2-16.5-6.1   C233.9,357.3,233.1,347.5,234.5,342z M271.4,327.2c4.8,3,6.1,7.4,3.2,11.5c-2,2.8-8,5.5-12.5,5.5c-6.7,0-14-4.8-14-9.2   C248.2,326.2,262.1,321.5,271.4,327.2z M1720.4,352.4c-15.1-50.2,9.8-91.8,62.9-105.1c15.2-3.9,84.1-2.1,95.9,2.4   c4.3,1.7,6.2,8,6.3,21.1c0,10.3,1.2,22.8,2.5,27.7c2,7.5,0.9,9-7.1,8.9c-7.2-0.1-11.6-4.3-17.7-17.1c-9.7-20.4-21.5-26.9-48.9-27   c-35-0.1-60.6,23.5-56.4,51.9c2.7,18.5,21.2,36.8,62.8,61.8c39.5,23.9,62.6,43.5,71.8,61c24.6,47,3.6,97.2-51.2,122.5   c-28.1,13-75.2,14.4-108.4,3.1l-21.2-7.2v-33.9c0-30.7,0.7-33.9,7.7-33.9c5.9,0,8.4,3.9,10.4,16c5.1,30.1,28,48.4,60.6,48.4   c31.9,0,54.3-17.5,62.8-49.1c3.6-13.5,3-18.5-4.2-33.3c-8.7-17.8-23.6-29.7-74.2-58.9C1746.8,395.6,1726.9,373.9,1720.4,352.4   L1720.4,352.4z M727.3,267.3c-6.9,0-9.6-2.3-9.6-8.1c0-7.7,2.7-8,56.9-8c50.3,0,56.7,0.7,55.6,6.5c-0.7,3.6-7.7,8.6-15.4,11.1   l-14.1,4.5L799.4,376c-0.8,68.5,0.3,108,3.4,118.8c9.2,32,37.2,50.3,76.6,50.3c27.5,0,43.5-6.4,63.7-25.5   c21.7-20.5,25.2-40,25.1-141.3c-0.1-99.9-1.8-108.2-23.3-110.2c-9.7-1-13-3.2-13-9.1c0-7.3,3.2-7.8,48.5-7.8   c45.8,0,48.5,0.4,48.5,8c0,5-2.7,8.1-7.1,8.1c-18.7,0.2-19.1,1.9-21.6,111.5c-2.6,113.8-5,127.2-28.1,155.1   c-6.6,8-22.5,19.7-35.2,26c-20.7,10.2-27.3,11.3-63.5,11.2c-33.4-0.1-43.9-1.7-60.6-9.3c-24.3-11.1-40.2-25.4-51.9-47   c-8.2-15.1-8.9-23.2-10.7-125.2C747.9,272.9,746.8,267.3,727.3,267.3L727.3,267.3z M1105.4,267.3c-9.2,0-11.9-1.8-11.9-8.1   c0-7.5,2.6-8,41.4-7.7l41.4,0.3l19.8,22.8c10.9,12.6,46.4,51.8,78.9,87.2c32.5,35.4,69.8,76.7,82.9,91.6   c13.1,15,25.4,27.2,27.4,27.2c2,0,3-42.2,2.3-97l-1.3-97l-11.4-9.7c-6.2-5.4-15.8-9.7-21.2-9.7c-7.2,0-9.9-2.2-9.9-8.2   c0-7.9,2.1-8.1,55.6-7.1c45.5,0.9,55.6,2.2,55.6,7c0,3.4-5.6,7-13.5,8.6c-7.4,1.5-15.6,4.8-18.2,7.4c-3.3,3.3-5,46.1-5.8,147.4   l-1.2,142.7h-11.7c-10.1,0-22.1-11.3-86.2-81.5c-41-44.8-88.8-98.1-106.3-118.4s-33.2-37.1-34.8-37.2c-4.7-0.5-3.5,180.8,1.2,198   c3.7,13.4,6.3,15.7,22.2,20c12.8,3.4,18,6.9,18,12c0,6.6-4.9,7.2-56.6,7.2c-52.6,0-56.6-0.5-56.6-7.5c0-5.1,3.8-8.3,11.9-9.9   c24.7-4.9,26.3-12.7,27.7-132c0.8-66.8-0.4-113.5-3-123.3C1137.6,275.2,1126,267.3,1105.4,267.3L1105.4,267.3z M1529.1,267.3   c-8.7,0-11.4-1.9-11.4-8.1c0-7.7,2.7-8,60.6-8c57.9,0,60.6,0.4,60.6,8c0,5.9-2.7,8.1-10.1,8.1c-5.6,0-13.8,3.7-18.3,8.2   c-8,8-8.2,11.9-7.1,135.2c1.1,120.3,1.6,127.3,9,132.7c4.3,3.1,12,5.7,17.2,5.7c6.6,0,9.3,2.3,9.3,8c0,7.7-2.7,8-60.6,8   c-56.6,0-60.6-0.5-60.6-7.5c0-5.7,4-8.2,16-10.1c23.9-3.8,25.1-11.6,23.7-150.8c-1.2-111.5-1.7-118.4-9.1-123.8   C1544,269.9,1535.3,267.3,1529.1,267.3L1529.1,267.3z M1951.9,267.3c-5.5,0-9.7-3.1-11-8.1c-2-7.8-0.1-8,58.1-8   c57.5,0,60.2,0.4,60.2,8c0,6.2-2.7,8.1-11.6,8.1c-25.4,0-24.8,4.6,13.6,109.9c19.6,53.6,38.6,104.5,42.3,113.1l6.6,15.7l30.8-82.1   c36.3-96.7,41-114.5,34.9-132.2c-4.3-12.3-21-24.4-33.6-24.4c-3.6,0-6.3-3.5-6.3-8.1c0-7.7,2.7-8,62.6-8c59.9,0,62.6,0.3,62.6,8   c0,5.7-2.7,8.1-9.3,8.1c-17,0-24.5,9-22,26.6c2.5,18.1,72,212.1,74.9,209.2c4.7-4.7,81.7-213.6,81.7-221.7c0-9.8-6.9-14-22.6-14   c-7.1,0-9.8-2.2-9.8-8.1c0-7.6,2.7-8,48.5-8c41.1,0,48.5,1,48.5,6.2c0,3.4-5,8-11.2,10.1c-13.9,4.8-17.3,10.3-34.7,54.8   c-7.6,19.5-31.5,80.7-53.1,135.9c-21.6,55.2-40.1,102.7-41.3,105.7c-1.1,3-7.8,5.4-14.9,5.4h-12.8l-29-75.5   c-16-41.5-34.8-90.7-41.9-109.3c-12.1-31.9-13.2-33.3-17.7-24.2c-2.7,5.3-21.8,54.6-42.6,109.5l-37.8,99.8l-14.1-1.2l-14.1-1.2   l-53.8-140.6c-30-78.5-57.7-144.7-62.6-150C1964.7,271.5,1956.8,267.3,1951.9,267.3L1951.9,267.3z M2759.8,269   c-0.7-1.5-0.7-7-0.7-7s-0.1-2,0.7-3c0.8-1.1,1.1-1.1,4.1-1.4h0c10.9-1.1,32.8-2.8,51.1-3.6c1.7-0.1,3.5-0.2,5.6-0.2h0h0l0,0   c20.1-0.9,56.1-2.1,80.8-0.9c47.4,2.4,81.2,25.3,92.7,63.2c11.5,37.9,5.4,73.5-10.3,96.1c-15.7,22.6-42,42.1-85.8,40.9   c-36.2-1.1-45.8-7.8-53.6-13.2c-1.6-1.2-3.2-2.2-4.9-3.2v48.3c0.4,33,0.6,48.8,3.2,54.6c3.4,7.9,11.2,12.7,26.4,16.5   c0,0,6.9,1.6,8.6,3.3c1.8,1.7,1.8,5.5,1.8,5.5s0.4,3.6-1.1,5.4c-1.4,1.8-4.2,1.5-4.2,1.5l-67-0.5l-40.4-0.1c0,0-4.2,0.8-5.8-0.9   c-1.6-1.7-1.4-5.3-1.4-5.3s0.3-3.8,2.2-5.6c1.8-1.7,8.8-3.6,8.8-3.6c15.6-4.4,22.4-9,25.9-17.7c2.9-7,2.9-20.1,2.8-126.5   c0-100.9-0.2-119.8-2.5-125.2c-3.4-8-12-10.2-24.2-13.2h0c-2.4-0.6-5-1.2-7.7-1.9C2764.8,271.1,2760.4,270.5,2759.8,269L2759.8,269   z M2955,351.4c0,16.5-0.3,42.5-17.9,59c-17.6,16.6-52.3,21.1-75.9,16.5c-7.4-1.5-11.7-3.7-14.9-5.4l-0.3-0.2l-6-3.2l-0.4-58.2   c-0.2-36.4,0.2-60.2,1-63.6c0.8-19.2,29.1-21.6,43-20.9C2942.8,275.5,2953.3,325.4,2955,351.4z M2573.7,253.4c0,0-2.9,1.1-7.3,2.8   l-15.8,8.2l-11.4,28.4c-6.3,15.6-17.7,44.4-25.5,63.8c-14.1,35.5-23.4,58.7-33.2,83c-2.9,7.1-11.6,28.9-19.3,48.4   c-7.8,19.4-15.5,38-17.2,41.1c-0.3,0.5-0.6,1.1-0.9,1.7c-4.3,8.1-11.9,22.3-25.2,24.4c0,0-7.3,0.7-10,3.4c-2.7,2.7-2.5,4.9-2.5,4.9   v3.4c0,0,0.2,1.6,1.8,2.5c1.5,0.8,3.6,0.9,3.6,0.9l48.7-0.5h50.3c0,0,3.6,0.4,4.9-0.7c1.4-1.1,1.8-2.8,1.8-2.8v-3.5   c0,0-0.7-3.9-2.7-5.4c-2-1.5-9.5-2.5-9.5-2.5c-20.1-2.7-23.6-17.9-21.1-31.6c1.2-6.7,9.3-31.6,18.4-56.7l3.1-8.7l52.7-0.4   c29-0.2,54-0.1,55.6,0.3c2.3,0.6,5.5,7.1,14.9,30.2c14.2,35.1,15.4,39.4,12.2,45.9c-0.2,0.4-0.4,0.9-0.6,1.3   c-3,6.3-8.7,18.7-23.2,19.9c0,0-7.7,0.3-9.6,2.6c-1.9,2.3-1.5,4.9-1.5,4.9v3.5c0,0,0.5,2,1.5,2.9c1,0.8,2.7,0.6,2.7,0.6l47.8-0.3   h67.2c0,0,2.7,0.3,3.4-0.7c0.7-1,0.9-2.2,0.9-2.2v-4.7c0,0-0.3-2.5-1.6-3.9c-1.3-1.4-10-2.8-10-2.8c-11.1-1.8-16.7-11-20.8-17.8   c-1-1.7-2-3.3-2.9-4.6c-1.9-2.6-8.8-16.9-14.1-30.7c-5.4-13.7-17.4-44.8-26.9-69c-9.4-24.2-22.5-58-29.2-75.1   c-6.6-17.1-19.3-49.6-28-72.2c-1.4-3.7-2.7-7.1-3.9-10v0c-5.9-15.2-8.3-21.3-8.9-22.2C2580.3,250.7,2573.7,253.4,2573.7,253.4   L2573.7,253.4z M2570.6,345.9c-2.1-5.1-5.9-14.4-8.3-20.6c-4.4-11.2-6.1-13.8-7.5-11.5c-0.4,0.7-3.2,8.3-6.2,17   c-19.5,56.1-28.3,81.4-30.1,86.2c-1.1,3-2,6.1-2,6.9c0,0.9,15.9,1.4,43,1.4c23.7,0,43-0.3,43-0.6c0-0.4-2.1-5.7-4.7-11.9   c-2.6-6.2-8.9-21.6-14-34.4S2572.7,351.1,2570.6,345.9L2570.6,345.9z"></path>
</g>
</svg>
