<svg xmlns="http://www.w3.org/2000/svg" xmlns:xlink="http://www.w3.org/1999/xlink" version="1.1" id="layer" x="0px" y="0px" style="enable-background:new 0 0 652 652;" xml:space="preserve" viewBox="26.7 254.9 599.9 141.3">
<style type="text/css">
	.st0{fill:#00E100;}
</style>
<path class="st0" d="M149.1,298.4l-75.4-43.5l-9.4,5.4v10.9l-9.4-5.4l-9.4,5.4V282l-9.4-5.4l-9.4,5.4v87l9.4,5.4l9.4-5.4v10.9  l9.4,5.4l9.4-5.4v10.9l9.4,5.4l75.4-43.5v-10.9l-9.4-5.4l9.4-5.4v-10.9l-9.4-5.4l9.4-5.4V298.4z M45.5,358.2l-9.4,5.4v-76.1l9.4,5.4  V358.2z M73.7,363.6v-10.9l37.7-21.8l9.4,5.4L73.7,363.6z M102,325.6l-28.3,16.3v-32.6L102,325.6z M111.4,320.1l-37.7-21.8v-10.9  l47.1,27.2L111.4,320.1z M54.9,276.6l9.4,5.4v10.9l-9.4-5.4V276.6z M54.9,298.4l9.4,5.4v43.5l-9.4,5.4V298.4z M54.9,363.6l9.4-5.4  v10.9l-9.4,5.4V363.6z M139.7,347.3l-65.9,38.1v-10.9l56.5-32.6L139.7,347.3z M139.7,325.6l-9.4,5.4l-9.4-5.4l9.4-5.4L139.7,325.6z   M130.2,309.2l-56.5-32.6v-10.9l65.9,38.1L130.2,309.2L130.2,309.2z"/>
<path d="M188.2,363.6h-10.9v-76.1h33.2c15.2,0,24.5,9.2,24.5,22.8s-9.2,22.8-24.5,22.8h-22.3L188.2,363.6L188.2,363.6z M224.1,310.3  c0-7.6-4.4-13.6-13.6-13.6h-22.3v27.2h22.3C219.8,323.9,224.1,317.9,224.1,310.3z M239,321.7c1.1-9,8.7-16.3,24-16.3  c9.4,0,17.3,2.5,21.3,9.2c1.7,2.9,2.7,6.9,2.7,11.4v37.5h-10.4v-7.1c-3.3,4.4-9.8,8.7-19,8.7c-11.5,0-21.3-6-21.3-18.5  c0-9.8,6.6-16.7,20.8-18l19.6-1.6v-1.1c0-7.6-3.3-12.5-13.6-12.5c-8.3,0-12.7,3.3-13.3,8.2L239,321.7L239,321.7z M276.7,339.1v-4.4  l-18.5,1.6c-7.6,0.6-11.4,4.4-11.4,10.3c0,7.6,5.4,10.3,12,10.3C268.5,357.1,276.7,350.6,276.7,339.1L276.7,339.1z M319.3,315.8  c-7.6,0-12.5,4.4-12.5,14.1v33.7h-10.4v-56.6h10.4v6.5c2.7-4.9,7.1-7.6,15.2-7.6h2.9v9.8L319.3,315.8L319.3,315.8z M328.1,321.7  c1.1-9,8.7-16.3,24-16.3c9.4,0,17.3,2.5,21.3,9.2c1.7,2.9,2.7,6.9,2.7,11.4v37.5h-10.4v-7.1c-3.3,4.4-9.8,8.7-19,8.7  c-11.5,0-21.3-6-21.3-18.5c0-9.8,6.6-16.7,20.8-18l19.6-1.6v-1.1c0-7.6-3.3-12.5-13.6-12.5c-8.3,0-12.7,3.3-13.3,8.2L328.1,321.7  L328.1,321.7z M365.7,339.1v-4.4l-18.5,1.6c-7.6,0.6-11.4,4.4-11.4,10.3c0,7.6,5.4,10.3,12,10.3  C357.6,357.1,365.7,350.6,365.7,339.1L365.7,339.1z M427.5,356c-3.3,5.4-9.8,9.2-18.5,9.2c-17,0-26.2-13.6-26.2-29.9  c0-16.3,9.2-29.9,26.2-29.9c8.7,0,15.2,3.8,18.5,9.2v-27.2H438v76.1h-10.4L427.5,356L427.5,356z M410.7,314.1  c-11.4,0-17.4,9.2-17.4,21.2s6,21.2,17.4,21.2s17.4-9.8,17.4-21.2C428.1,323.9,422.1,314.1,410.7,314.1z M478.2,354.9v8.7h-33.5  v-8.7h11.5v-39.2h-11.5v-8.7h22v47.9L478.2,354.9L478.2,354.9z M466.7,298.4h-10.4v-10.9h10.4V298.4z M522.2,354.9  c-2.2,3.3-8.2,8.2-18,8.2c-15.9,0-26.2-13.1-26.2-28.8s10.3-28.8,26.2-28.8c9.8,0,15.8,4.9,18,8.2V307h10.4v50.6  c0,18-10.3,27.2-26.8,27.2c-12.6,0-21.9-6.5-24-16.3h10.9c1,3.9,5,8.2,13.2,8.2c12,0,16.3-7.6,16.3-19L522.2,354.9L522.2,354.9z   M505.3,314.1c-10.3,0-16.9,9.2-16.9,20.1c0,10.9,6.5,20.1,16.9,20.1c10.9,0,17.4-9.2,17.4-20.1  C522.7,323.4,516.2,314.1,505.3,314.1L505.3,314.1z M552.6,313.6c3.3-6,9.8-8.2,16.3-8.2c7.6,0,14.7,3.3,18,9.8  c3.3-6,9.2-9.8,19-9.8c12,0,20.7,7.1,20.7,21.2v37h-10.4v-35.3c0-9.2-3.8-14.1-12.4-14.1c-7.1,0-14.1,4.4-14.1,15.8v33.7h-10.4  v-35.3c0-9.2-3.8-14.1-12.4-14.1c-7.1,0-14.1,4.4-14.1,15.8v33.7h-10.4v-56.6h10.4L552.6,313.6L552.6,313.6z"/>
</svg>