<svg xmlns="http://www.w3.org/2000/svg" xmlns:xlink="http://www.w3.org/1999/xlink" viewBox="0 0 620.43 612"><defs><radialGradient id="Degradado_sin_nombre_191" cx="308.95" cy="203.63" r="408.18" gradientTransform="translate(303.5 -131.64) rotate(45)" gradientUnits="userSpaceOnUse"><stop offset="0" stop-color="#5136af"/><stop offset="0.43" stop-color="#33289b"/><stop offset="0.8" stop-color="#1d1d8c"/><stop offset="1" stop-color="#3b31af"/></radialGradient><radialGradient id="Degradado_sin_nombre_190" cx="308.99" cy="211.57" r="399.83" gradientTransform="translate(307.7 -129.9) rotate(45)" gradientUnits="userSpaceOnUse"><stop offset="0" stop-color="#9054ff"/><stop offset="0.52" stop-color="#5d3de7"/><stop offset="0.8" stop-color="#4733dc"/><stop offset="1" stop-color="#724dff"/></radialGradient><linearGradient id="Degradado_sin_nombre_189" x1="307.25" y1="426.34" x2="307.25" y2="35.33" gradientUnits="userSpaceOnUse"><stop offset="0.3" stop-color="#b085ff" stop-opacity="0"/><stop offset="0.38" stop-color="#b085ff" stop-opacity="0.09"/><stop offset="0.55" stop-color="#b085ff" stop-opacity="0.31"/><stop offset="0.79" stop-color="#b085ff" stop-opacity="0.67"/><stop offset="1" stop-color="#b085ff"/></linearGradient></defs><g style="isolation:isolate"><g id="Layer_1" data-name="Layer 1"><g id="Layer_3" data-name="Layer 3"><circle cx="310.65" cy="300.53" r="290.7" transform="translate(-121.52 307.69) rotate(-45)" fill="url(#Degradado_sin_nombre_191)"/><circle cx="310.65" cy="306.48" r="284.75" transform="translate(-125.73 309.43) rotate(-45)" stroke="#9054ff" stroke-miterlimit="10" stroke-width="34.99" fill="url(#Degradado_sin_nombre_190)"/><ellipse cx="307.25" cy="230.83" rx="226.95" ry="195.5" opacity="0.6" fill="url(#Degradado_sin_nombre_189)" style="mix-blend-mode:screen"/><ellipse cx="303.43" cy="73.16" rx="33.97" ry="23.8" fill="#b085ff" opacity="0.5" style="mix-blend-mode:screen"/><path d="M446.2,173.63c-1.13-3.3-2.48-4.21-4.59-5-4.62-1.75-12.43.88-12.43.88S152.46,269,136.66,280c-3.41,2.37-4.55,3.75-5.11,5.37-2.73,7.84,5.78,11.3,5.78,11.3l71.32,23.24s2.66.38,3.61-.22C228.48,309.42,375.49,216.59,384,213.47c1.34-.4,2.32.06,2.06,1C382.64,226.36,255,339.86,255,339.86a6.43,6.43,0,0,0-.8,1.31l-.16-.09-6.66,70.74s-2.79,21.67,18.89,0c15.29-15.29,30.08-28.09,37.49-34.31,24.52,16.93,50.91,35.66,62.3,45.45,5.72,4.93,10.51,5.72,14.45,5.58,10.81-.41,13.83-12.28,13.83-12.28s50.42-202.95,52.11-230.14c.16-2.67.39-4.36.41-6.19A23,23,0,0,0,446.2,173.63Z" fill="#fff"/></g></g></g></svg>