<svg xmlns="http://www.w3.org/2000/svg" xmlns:xlink="http://www.w3.org/1999/xlink" viewBox="0 0 620.43 612"><defs><radialGradient id="Degradado_sin_nombre_203" cx="296.77" cy="304.54" r="349.86" gradientUnits="userSpaceOnUse"><stop offset="0.05" stop-color="#95afbe"/><stop offset="1" stop-color="#8fa5bf" stop-opacity="0"/></radialGradient><radialGradient id="Degradado_sin_nombre_191" cx="309.89" cy="203.09" r="408.29" gradientTransform="translate(303.4 -132.45) rotate(45)" gradientUnits="userSpaceOnUse"><stop offset="0" stop-color="#5136af"/><stop offset="0.43" stop-color="#33289b"/><stop offset="0.8" stop-color="#1d1d8c"/><stop offset="1" stop-color="#3b31af"/></radialGradient><radialGradient id="Degradado_sin_nombre_190" cx="309.92" cy="211.02" r="399.93" gradientTransform="translate(307.61 -130.71) rotate(45)" gradientUnits="userSpaceOnUse"><stop offset="0" stop-color="#9054ff"/><stop offset="0.52" stop-color="#5d3de7"/><stop offset="0.8" stop-color="#4733dc"/><stop offset="1" stop-color="#724dff"/></radialGradient><linearGradient id="Degradado_sin_nombre_189" x1="308.19" y1="425.85" x2="308.19" y2="34.74" gradientUnits="userSpaceOnUse"><stop offset="0.3" stop-color="#b085ff" stop-opacity="0"/><stop offset="0.38" stop-color="#b085ff" stop-opacity="0.09"/><stop offset="0.55" stop-color="#b085ff" stop-opacity="0.31"/><stop offset="0.79" stop-color="#b085ff" stop-opacity="0.67"/><stop offset="1" stop-color="#b085ff"/></linearGradient></defs><g style="isolation:isolate"><g id="Layer_1" data-name="Layer 1"><g id="Layer_3" data-name="Layer 3"><circle cx="296.77" cy="304.54" r="349.86" fill="url(#Degradado_sin_nombre_203)"/><circle cx="311.59" cy="300.02" r="290.78" transform="translate(-120.88 308.2) rotate(-45)" fill="url(#Degradado_sin_nombre_191)"/><circle cx="311.59" cy="305.97" r="284.83" transform="translate(-125.09 309.94) rotate(-45)" stroke="#9054ff" stroke-miterlimit="10" stroke-width="35" fill="url(#Degradado_sin_nombre_190)"/><ellipse cx="308.19" cy="230.3" rx="227.01" ry="195.55" opacity="0.6" fill="url(#Degradado_sin_nombre_189)" style="mix-blend-mode:screen"/><ellipse cx="304.36" cy="72.58" rx="33.98" ry="23.81" fill="#b085ff" opacity="0.5" style="mix-blend-mode:screen"/><path d="M266.79,451.89c120.52,0,186.42-99.84,186.42-186.42q0-4.26-.19-8.47a133.62,133.62,0,0,0,32.69-33.92,130.83,130.83,0,0,1-37.63,10.31,65.73,65.73,0,0,0,28.81-36.24,131.43,131.43,0,0,1-41.6,15.9A65.57,65.57,0,0,0,323.64,272.8a186,186,0,0,1-135-68.45,65.59,65.59,0,0,0,20.28,87.47,65,65,0,0,1-29.67-8.2c0,.27,0,.55,0,.84a65.55,65.55,0,0,0,52.57,64.23,65.68,65.68,0,0,1-17.28,2.3,64.8,64.8,0,0,1-12.31-1.18,65.6,65.6,0,0,0,61.21,45.51,131.5,131.5,0,0,1-81.38,28,134.44,134.44,0,0,1-15.63-.9,185.52,185.52,0,0,0,100.43,29.43" fill="#fff"/></g></g></g></svg>